<svg width="216" height="61" viewBox="0 0 216 61" fill="none" xmlns="http://www.w3.org/2000/svg">
<g clip-path="url(#clip0_740_33155)">
<rect x="1.11356" y="1.2034" width="213.773" height="58.8966" rx="10.5432" fill="black" stroke="white" stroke-width="0.727119"/>
<path d="M50.5895 29.1114C50.5451 24.2952 54.6342 21.9521 54.8211 21.843C52.5053 18.551 48.9159 18.1012 47.6545 18.0653C44.6398 17.756 41.7155 19.8242 40.1798 19.8242C38.6135 19.8242 36.2486 18.0952 33.6998 18.146C30.42 18.1953 27.3516 20.0468 25.6688 22.9219C22.1958 28.7841 24.786 37.3989 28.1134 42.1374C29.7778 44.4581 31.7227 47.0492 34.2684 46.9581C36.759 46.858 37.6893 45.41 40.6948 45.41C43.6727 45.41 44.5463 46.9581 47.1426 46.8998C49.8155 46.858 51.4984 44.5687 53.1046 42.2271C55.028 39.5672 55.8005 36.9476 55.8312 36.8131C55.7683 36.7922 50.6401 34.884 50.5895 29.1114Z" fill="white"/>
<path d="M45.6851 14.9482C47.0246 13.3149 47.9411 11.0928 47.6867 8.83789C45.7479 8.92157 43.3233 10.1454 41.927 11.7429C40.6917 13.1505 39.5882 15.4577 39.8733 17.6275C42.0512 17.7859 44.2873 16.5561 45.6851 14.9482Z" fill="white"/>
<path d="M51.1196 29.1114C51.0751 24.2952 55.1642 21.9521 55.3512 21.843C53.0354 18.551 49.4459 18.1012 48.1846 18.0654C45.1699 17.7561 42.2456 19.8242 40.7099 19.8242C39.1435 19.8242 36.7787 18.0953 34.2299 18.1461C30.95 18.1954 27.8817 20.0469 26.1989 22.9219C22.7259 28.7842 25.3161 37.3989 28.6434 42.1374C30.3079 44.4581 32.2528 47.0493 34.7985 46.9581C37.289 46.858 38.2194 45.41 41.2249 45.41C44.2028 45.41 45.0764 46.9581 47.6727 46.8999C50.3456 46.858 52.0284 44.5687 53.6346 42.2271C55.5581 39.5672 56.3306 36.9477 56.3612 36.8132C56.2984 36.7922 51.1702 34.884 51.1196 29.1114Z" fill="white"/>
<path d="M46.2151 14.9482C47.5547 13.3149 48.4712 11.0929 48.2168 8.83793C46.278 8.92161 43.8533 10.1455 42.4571 11.7429C41.2218 13.1506 40.1183 15.4578 40.4034 17.6275C42.5812 17.7859 44.8174 16.5561 46.2151 14.9482Z" fill="white"/>
<path d="M86.632 46.7337H83.1513L81.2447 40.8924H74.6176L72.8014 46.7337H69.4128L75.9786 26.8472H80.034L86.632 46.7337ZM80.67 38.4417L78.9458 33.2489C78.7634 32.7184 78.4216 31.4692 77.9174 29.5026H77.8561C77.6553 30.3484 77.3319 31.5977 76.8874 33.2489L75.1939 38.4417H80.67Z" fill="white"/>
<path d="M103.517 39.3876C103.517 41.8263 102.841 43.754 101.49 45.1692C100.279 46.4289 98.7754 47.058 96.9806 47.058C95.0434 47.058 93.6518 46.3796 92.8042 45.0227H92.7429V52.5765H89.4753V37.1147C89.4753 35.5816 89.4339 34.008 89.3542 32.3942H92.2279L92.4103 34.667H92.4716C93.5613 32.9545 95.215 32.0998 97.4343 32.0998C99.1693 32.0998 100.618 32.7678 101.776 34.1052C102.938 35.4441 103.517 37.2044 103.517 39.3876ZM100.188 39.5042C100.188 38.1085 99.8666 36.9578 99.2198 36.0523C98.5133 35.1079 97.5646 34.6357 96.3753 34.6357C95.5691 34.6357 94.8365 34.8987 94.1821 35.4172C93.5261 35.9402 93.0969 36.6231 92.8962 37.4689C92.795 37.8634 92.7444 38.1862 92.7444 38.4402V40.8311C92.7444 41.8742 93.0724 42.7543 93.7284 43.4731C94.3844 44.1919 95.2365 44.5505 96.2848 44.5505C97.5155 44.5505 98.4734 44.0873 99.1585 43.1638C99.8452 42.2388 100.188 41.0194 100.188 39.5042Z" fill="white"/>
<path d="M120.433 39.3876C120.433 41.8263 119.757 43.754 118.404 45.1692C117.194 46.4289 115.691 47.058 113.896 47.058C111.959 47.058 110.567 46.3796 109.721 45.0227H109.66V52.5765H106.392V37.1147C106.392 35.5816 106.351 34.008 106.271 32.3942H109.145L109.327 34.667H109.389C110.477 32.9545 112.131 32.0998 114.351 32.0998C116.085 32.0998 117.533 32.7678 118.695 34.1052C119.852 35.4441 120.433 37.2044 120.433 39.3876ZM117.104 39.5042C117.104 38.1085 116.781 36.9578 116.134 36.0523C115.427 35.1079 114.482 34.6357 113.291 34.6357C112.483 34.6357 111.752 34.8987 111.096 35.4172C110.44 35.9402 110.012 36.6231 109.812 37.4689C109.712 37.8634 109.66 38.1862 109.66 38.4402V40.8311C109.66 41.8742 109.988 42.7543 110.641 43.4731C111.297 44.1904 112.149 44.5505 113.2 44.5505C114.431 44.5505 115.389 44.0873 116.074 43.1638C116.761 42.2388 117.104 41.0194 117.104 39.5042Z" fill="white"/>
<path d="M139.345 41.1569C139.345 42.8485 138.743 44.2248 137.534 45.2872C136.205 46.4483 134.355 47.0281 131.978 47.0281C129.783 47.0281 128.024 46.6157 126.692 45.7893L127.449 43.1339C128.883 43.9797 130.458 44.4041 132.173 44.4041C133.403 44.4041 134.361 44.1321 135.049 43.5912C135.734 43.0502 136.076 42.324 136.076 41.4184C136.076 40.6115 135.794 39.9316 135.229 39.3802C134.666 38.8288 133.727 38.3162 132.415 37.8425C128.844 36.5439 127.06 34.6417 127.06 32.1402C127.06 30.5054 127.685 29.165 128.937 28.1219C130.185 27.0774 131.849 26.5559 133.93 26.5559C135.786 26.5559 137.328 26.8712 138.559 27.5003L137.742 30.0974C136.593 29.4877 135.293 29.1829 133.839 29.1829C132.689 29.1829 131.791 29.4594 131.147 30.0093C130.603 30.5009 130.33 31.1001 130.33 31.8099C130.33 32.5959 130.641 33.246 131.267 33.757C131.811 34.2292 132.799 34.7403 134.234 35.2917C135.989 35.9806 137.278 36.786 138.107 37.7095C138.933 38.63 139.345 39.7821 139.345 41.1569Z" fill="white"/>
<path d="M150.149 34.7852H146.548V41.7472C146.548 43.518 147.182 44.4026 148.454 44.4026C149.038 44.4026 149.523 44.3533 149.906 44.2547L149.996 46.674C149.352 46.9086 148.505 47.0267 147.455 47.0267C146.165 47.0267 145.156 46.6426 144.428 45.876C143.703 45.108 143.338 43.8198 143.338 42.0102V34.7822H141.193V32.3913H143.338V29.7657L146.548 28.8213V32.3913H150.149V34.7852Z" fill="white"/>
<path d="M166.4 39.4457C166.4 41.6498 165.753 43.4595 164.462 44.8746C163.109 46.3316 161.313 47.0578 159.074 47.0578C156.916 47.0578 155.198 46.3599 153.916 44.9642C152.635 43.5686 151.994 41.8067 151.994 39.6833C151.994 37.4612 152.654 35.6412 153.976 34.226C155.296 32.8094 157.077 32.1011 159.316 32.1011C161.474 32.1011 163.21 32.799 164.521 34.1962C165.774 35.5515 166.4 37.3014 166.4 39.4457ZM163.01 39.5488C163.01 38.2263 162.72 37.0922 162.133 36.1462C161.448 35.0016 160.468 34.4308 159.199 34.4308C157.886 34.4308 156.888 35.0031 156.203 36.1462C155.616 37.0936 155.326 38.2458 155.326 39.6086C155.326 40.9311 155.616 42.0653 156.203 43.0097C156.91 44.1543 157.897 44.7252 159.17 44.7252C160.418 44.7252 161.397 44.1424 162.104 42.9798C162.706 42.016 163.01 40.8698 163.01 39.5488Z" fill="white"/>
<path d="M177.021 35.196C176.698 35.1378 176.353 35.1079 175.991 35.1079C174.842 35.1079 173.953 35.5308 173.328 36.378C172.784 37.1252 172.511 38.0696 172.511 39.2098V46.7337H169.245L169.275 36.91C169.275 35.2573 169.234 33.7525 169.153 32.3957H171.999L172.118 35.1393H172.209C172.554 34.1963 173.098 33.4372 173.843 32.8679C174.571 32.3553 175.357 32.0998 176.204 32.0998C176.506 32.0998 176.779 32.1207 177.021 32.1581V35.196Z" fill="white"/>
<path d="M191.635 38.8856C191.635 39.4565 191.596 39.9376 191.515 40.3306H181.712C181.751 41.7473 182.224 42.8306 183.135 43.5778C183.961 44.2458 185.029 44.5805 186.341 44.5805C187.792 44.5805 189.117 44.3549 190.307 43.9021L190.819 46.1137C189.428 46.7054 187.785 46.9998 185.889 46.9998C183.608 46.9998 181.818 46.3453 180.515 45.0378C179.216 43.7302 178.564 41.9744 178.564 39.7718C178.564 37.6095 179.17 35.8088 180.382 34.3728C181.651 32.8396 183.366 32.073 185.524 32.073C187.644 32.073 189.248 32.8396 190.338 34.3728C191.201 35.5907 191.635 37.0969 191.635 38.8856ZM188.519 38.0593C188.54 37.1149 188.327 36.299 187.884 35.6101C187.319 34.7239 186.45 34.2816 185.28 34.2816C184.212 34.2816 183.343 34.7135 182.68 35.5802C182.135 36.2691 181.812 37.0954 181.712 38.0578H188.519V38.0593Z" fill="white"/>
<path d="M79.5898 14.6134C79.5898 16.3722 79.0488 17.6962 77.9683 18.5853C76.9675 19.4057 75.5452 19.8166 73.703 19.8166C72.7895 19.8166 72.0079 19.7778 71.3534 19.7001V10.0901C72.2071 9.95559 73.1267 9.88685 74.1199 9.88685C75.8747 9.88685 77.1974 10.2589 78.0894 11.0031C79.0887 11.8444 79.5898 13.0473 79.5898 14.6134ZM77.8963 14.6567C77.8963 13.5166 77.5867 12.6424 76.9675 12.0327C76.3483 11.4245 75.4441 11.1197 74.2532 11.1197C73.7474 11.1197 73.3167 11.1525 72.9596 11.2213V18.527C73.1573 18.5569 73.5191 18.5704 74.0448 18.5704C75.2739 18.5704 76.2226 18.2371 76.8909 17.5707C77.5591 16.9042 77.8963 15.9329 77.8963 14.6567Z" fill="white"/>
<path d="M88.57 16.1495C88.57 17.2328 88.2528 18.1205 87.6182 18.8168C86.9531 19.5326 86.0718 19.8897 84.9714 19.8897C83.9108 19.8897 83.0663 19.5475 82.4364 18.8602C81.808 18.1743 81.4938 17.309 81.4938 16.266C81.4938 15.1752 81.8172 14.2801 82.467 13.5852C83.1169 12.8903 83.9905 12.5422 85.0909 12.5422C86.1515 12.5422 87.0037 12.8844 87.6489 13.5702C88.262 14.2367 88.57 15.0974 88.57 16.1495ZM86.904 16.2003C86.904 15.5502 86.76 14.9928 86.4734 14.5281C86.1362 13.9662 85.6565 13.6853 85.0327 13.6853C84.3874 13.6853 83.897 13.9662 83.5598 14.5281C83.2717 14.9928 83.1291 15.5592 83.1291 16.2287C83.1291 16.8787 83.2732 17.4361 83.5598 17.9008C83.9077 18.4627 84.392 18.7436 85.0173 18.7436C85.6304 18.7436 86.1117 18.4582 86.458 17.8859C86.7554 17.4122 86.904 16.8503 86.904 16.2003Z" fill="white"/>
<path d="M100.609 12.6856L98.3487 19.7299H96.8774L95.941 16.671C95.7034 15.9074 95.5103 15.1483 95.3601 14.3951H95.331C95.1915 15.1692 94.9984 15.9268 94.7501 16.671L93.7554 19.7299H92.2672L90.1415 12.6856H91.7921L92.609 16.0344C92.8067 16.8264 92.9692 17.581 93.0995 18.2953H93.1286C93.2481 17.7066 93.4458 16.9564 93.7248 16.0494L94.7501 12.6871H96.059L97.0414 15.9776C97.279 16.7801 97.4721 17.5526 97.6207 18.2968H97.6652C97.774 17.5721 97.938 16.7995 98.1556 15.9776L99.0323 12.6871H100.609V12.6856Z" fill="white"/>
<path d="M108.937 19.7299H107.33V15.6953C107.33 14.452 106.846 13.8304 105.874 13.8304C105.398 13.8304 105.013 14.0007 104.714 14.3429C104.418 14.6851 104.268 15.0886 104.268 15.5503V19.7285H102.662V14.6986C102.662 14.0799 102.642 13.409 102.604 12.6827H104.015L104.09 13.784H104.135C104.322 13.4418 104.601 13.1594 104.967 12.9338C105.402 12.6708 105.89 12.5378 106.423 12.5378C107.098 12.5378 107.658 12.75 108.104 13.1758C108.659 13.6974 108.937 14.4759 108.937 15.51V19.7299Z" fill="white"/>
<path d="M113.366 19.7298H111.761V9.45334H113.366V19.7298Z" fill="white"/>
<path d="M122.823 16.1495C122.823 17.2328 122.505 18.1205 121.871 18.8168C121.206 19.5326 120.323 19.8897 119.224 19.8897C118.162 19.8897 117.317 19.5475 116.689 18.8602C116.061 18.1743 115.747 17.309 115.747 16.266C115.747 15.1752 116.07 14.2801 116.72 13.5852C117.37 12.8903 118.243 12.5422 119.342 12.5422C120.404 12.5422 121.255 12.8844 121.902 13.5702C122.515 14.2367 122.823 15.0974 122.823 16.1495ZM121.155 16.2003C121.155 15.5502 121.011 14.9928 120.725 14.5281C120.389 13.9662 119.908 13.6853 119.285 13.6853C118.639 13.6853 118.148 13.9662 117.813 14.5281C117.524 14.9928 117.382 15.5592 117.382 16.2287C117.382 16.8787 117.526 17.4361 117.813 17.9008C118.16 18.4627 118.645 18.7436 119.27 18.7436C119.883 18.7436 120.363 18.4582 120.709 17.8859C121.008 17.4122 121.155 16.8503 121.155 16.2003Z" fill="white"/>
<path d="M130.596 19.7298H129.154L129.034 18.9184H128.99C128.496 19.5655 127.793 19.8897 126.879 19.8897C126.197 19.8897 125.646 19.6761 125.23 19.2517C124.853 18.8661 124.665 18.3865 124.665 17.8171C124.665 16.9564 125.032 16.3004 125.773 15.8461C126.511 15.3918 127.551 15.1692 128.889 15.1796V15.0481C128.889 14.1202 128.389 13.6569 127.388 13.6569C126.675 13.6569 126.047 13.8318 125.505 14.1784L125.178 13.1503C125.849 12.7454 126.679 12.5422 127.656 12.5422C129.545 12.5422 130.492 13.5135 130.492 15.4561V18.0502C130.492 18.7541 130.527 19.3144 130.596 19.7298ZM128.928 17.309V16.2227C127.157 16.1928 126.271 16.6665 126.271 17.6423C126.271 18.0099 126.372 18.2848 126.579 18.4686C126.786 18.6524 127.049 18.7436 127.364 18.7436C127.716 18.7436 128.046 18.6345 128.346 18.4178C128.648 18.1997 128.833 17.9232 128.902 17.584C128.919 17.5078 128.928 17.4151 128.928 17.309Z" fill="white"/>
<path d="M139.723 19.7298H138.297L138.222 18.5986H138.178C137.723 19.4593 136.947 19.8897 135.857 19.8897C134.987 19.8897 134.262 19.5565 133.687 18.89C133.112 18.2235 132.826 17.3583 132.826 16.2959C132.826 15.1557 133.137 14.2322 133.762 13.5269C134.368 12.8694 135.109 12.5406 135.992 12.5406C136.962 12.5406 137.641 12.8589 138.028 13.497H138.058V9.45334H139.666V17.832C139.666 18.5179 139.684 19.15 139.723 19.7298ZM138.058 16.7591V15.5846C138.058 15.3813 138.043 15.217 138.014 15.0914C137.923 14.7149 137.729 14.3981 137.433 14.1425C137.134 13.887 136.774 13.7585 136.359 13.7585C135.759 13.7585 135.29 13.9901 134.945 14.4548C134.604 14.9196 134.43 15.5128 134.43 16.2376C134.43 16.9339 134.594 17.4988 134.924 17.9336C135.272 18.3969 135.741 18.6285 136.328 18.6285C136.855 18.6285 137.277 18.4357 137.597 18.0487C137.907 17.6916 138.058 17.2612 138.058 16.7591Z" fill="white"/>
<path d="M153.46 16.1495C153.46 17.2328 153.143 18.1205 152.508 18.8168C151.843 19.5326 150.963 19.8897 149.861 19.8897C148.802 19.8897 147.958 19.5475 147.326 18.8602C146.698 18.1743 146.384 17.309 146.384 16.266C146.384 15.1752 146.707 14.2801 147.357 13.5852C148.007 12.8903 148.88 12.5422 149.982 12.5422C151.041 12.5422 151.895 12.8844 152.539 13.5702C153.152 14.2367 153.46 15.0974 153.46 16.1495ZM151.795 16.2003C151.795 15.5502 151.651 14.9928 151.365 14.5281C151.026 13.9662 150.548 13.6853 149.923 13.6853C149.279 13.6853 148.788 13.9662 148.45 14.5281C148.162 14.9928 148.019 15.5592 148.019 16.2287C148.019 16.8787 148.163 17.4361 148.45 17.9008C148.798 18.4627 149.282 18.7436 149.907 18.7436C150.52 18.7436 151.003 18.4582 151.349 17.8859C151.645 17.4122 151.795 16.8503 151.795 16.2003Z" fill="white"/>
<path d="M162.096 19.7299H160.492V15.6953C160.492 14.452 160.007 13.8304 159.034 13.8304C158.558 13.8304 158.173 14.0007 157.875 14.3429C157.578 14.6851 157.429 15.0886 157.429 15.5503V19.7285H155.822V14.6986C155.822 14.0799 155.803 13.409 155.765 12.6827H157.175L157.25 13.784H157.295C157.483 13.4418 157.762 13.1594 158.127 12.9338C158.564 12.6708 159.049 12.5378 159.584 12.5378C160.257 12.5378 160.818 12.75 161.264 13.1758C161.82 13.6974 162.096 14.4759 162.096 15.51V19.7299Z" fill="white"/>
<path d="M172.906 13.8586H171.138V17.2806C171.138 18.1503 171.452 18.5852 172.074 18.5852C172.362 18.5852 172.601 18.5613 172.79 18.5119L172.831 19.6999C172.514 19.8165 172.097 19.8748 171.584 19.8748C170.949 19.8748 170.456 19.6865 170.099 19.3099C169.74 18.9333 169.562 18.2997 169.562 17.4106V13.8586H168.506V12.6856H169.562V11.3945L171.136 10.9312V12.6841H172.905V13.8586H172.906Z" fill="white"/>
<path d="M181.41 19.7298H179.802V15.725C179.802 14.4623 179.318 13.8302 178.347 13.8302C177.603 13.8302 177.094 14.1963 176.815 14.9285C176.767 15.0825 176.74 15.2707 176.74 15.4919V19.7283H175.135V9.45334H176.74V13.6987H176.77C177.276 12.9262 178.001 12.5406 178.941 12.5406C179.606 12.5406 180.156 12.7528 180.593 13.1787C181.137 13.7092 181.41 14.4982 181.41 15.5412V19.7298Z" fill="white"/>
<path d="M190.181 15.8747C190.181 16.1556 190.159 16.3917 190.121 16.5845H185.304C185.325 17.2808 185.555 17.8113 186.001 18.1789C186.409 18.5077 186.935 18.6721 187.578 18.6721C188.291 18.6721 188.941 18.5615 189.526 18.3388L189.778 19.4267C189.093 19.7166 188.286 19.8615 187.353 19.8615C186.234 19.8615 185.353 19.5403 184.715 18.8977C184.075 18.2551 183.757 17.3929 183.757 16.311C183.757 15.2486 184.053 14.3639 184.649 13.6586C185.272 12.9055 186.113 12.5289 187.175 12.5289C188.214 12.5289 189.004 12.9055 189.537 13.6586C189.968 14.2563 190.181 14.996 190.181 15.8747ZM188.648 15.4697C188.66 15.005 188.555 14.6045 188.337 14.2668C188.058 13.8319 187.633 13.6138 187.059 13.6138C186.535 13.6138 186.107 13.826 185.781 14.2519C185.514 14.5911 185.356 14.996 185.304 15.4697H188.648Z" fill="white"/>
</g>
<defs>
<clipPath id="clip0_740_33155">
<rect width="214.5" height="59.6237" fill="white" transform="translate(0.75 0.839844)"/>
</clipPath>
</defs>
</svg>
