<svg width="213" height="60" viewBox="0 0 213 60" fill="none" xmlns="http://www.w3.org/2000/svg">
<g clip-path="url(#clip0_740_33154)">
<rect x="1.10932" y="1.19917" width="211.281" height="58.2102" rx="10.4203" fill="black" stroke="white" stroke-width="0.718644"/>
<path d="M75.2583 15.2268C75.2583 16.4734 74.8761 17.4718 74.123 18.2164C73.2571 19.0991 72.1294 19.5432 70.7475 19.5432C69.4268 19.5432 68.299 19.0916 67.3739 18.2015C66.4469 17.2982 65.9844 16.1897 65.9844 14.8629C65.9844 13.5361 66.4469 12.4276 67.3739 11.5318C68.299 10.6342 69.4268 10.1826 70.7475 10.1826C71.405 10.1826 72.0319 10.3151 72.6302 10.5614C73.2265 10.8096 73.712 11.1455 74.0637 11.5598L73.2648 12.3474C72.6512 11.6401 71.816 11.2911 70.7475 11.2911C69.7842 11.2911 68.9489 11.6196 68.2398 12.282C67.5383 12.9464 67.1866 13.8067 67.1866 14.8629C67.1866 15.9192 67.5383 16.7869 68.2398 17.4513C68.9489 18.1063 69.7842 18.4422 70.7475 18.4422C71.7701 18.4422 72.6302 18.1063 73.3087 17.4438C73.756 17.0053 74.0102 16.4006 74.0771 15.628H70.7475V14.5494H75.1895C75.243 14.7827 75.2583 15.0085 75.2583 15.2268V15.2268Z" fill="white" stroke="white" stroke-width="0.161944" stroke-miterlimit="10"/>
<path d="M82.303 11.4869H78.1304V14.3234H81.892V15.402H78.1304V18.2386H82.303V19.3377H76.9492V10.3877H82.303V11.4869Z" fill="white" stroke="white" stroke-width="0.161944" stroke-miterlimit="10"/>
<path d="M87.2757 19.3377H86.0945V11.4869H83.5352V10.3877H89.8369V11.4869H87.2757V19.3377V19.3377Z" fill="white" stroke="white" stroke-width="0.161944" stroke-miterlimit="10"/>
<path d="M94.3984 19.3377V10.3877H95.5778V19.3377H94.3984Z" fill="white" stroke="white" stroke-width="0.161944" stroke-miterlimit="10"/>
<path d="M100.807 19.3377H99.6353V11.4869H97.0664V10.3877H103.376V11.4869H100.807V19.3377Z" fill="white" stroke="white" stroke-width="0.161944" stroke-miterlimit="10"/>
<path d="M115.31 18.1865C114.406 19.0916 113.286 19.5432 111.95 19.5432C110.606 19.5432 109.486 19.0916 108.582 18.1865C107.68 17.2833 107.23 16.1748 107.23 14.8629C107.23 13.551 107.68 12.4425 108.582 11.5393C109.486 10.6342 110.606 10.1826 111.95 10.1826C113.278 10.1826 114.398 10.6342 115.302 11.5468C116.212 12.4575 116.661 13.5585 116.661 14.8629C116.661 16.1748 116.212 17.2833 115.31 18.1865ZM109.455 17.4363C110.136 18.1063 110.963 18.4422 111.95 18.4422C112.928 18.4422 113.764 18.1063 114.436 17.4363C115.115 16.7664 115.459 15.9061 115.459 14.8629C115.459 13.8197 115.115 12.9594 114.436 12.2895C113.764 11.6196 112.928 11.2836 111.95 11.2836C110.963 11.2836 110.136 11.6196 109.455 12.2895C108.777 12.9594 108.433 13.8197 108.433 14.8629C108.433 15.9061 108.777 16.7664 109.455 17.4363V17.4363Z" fill="white" stroke="white" stroke-width="0.161944" stroke-miterlimit="10"/>
<path d="M118.312 19.3377V10.3877H119.746L124.203 17.3484H124.255L124.203 15.6278V10.3877H125.383V19.3377H124.152L119.484 12.0336H119.433L119.484 13.7617V19.3377H118.312V19.3377Z" fill="white" stroke="white" stroke-width="0.161944" stroke-miterlimit="10"/>
<path d="M106.935 32.4084C103.343 32.4084 100.409 35.077 100.409 38.7589C100.409 42.4109 103.343 45.1075 106.935 45.1075C110.534 45.1075 113.468 42.4109 113.468 38.7589C113.468 35.077 110.534 32.4084 106.935 32.4084ZM106.935 42.6069C104.964 42.6069 103.269 41.0188 103.269 38.7589C103.269 36.4691 104.964 34.909 106.935 34.909C108.905 34.909 110.608 36.4691 110.608 38.7589C110.608 41.0188 108.905 42.6069 106.935 42.6069V42.6069ZM92.6969 32.4084C89.0978 32.4084 86.1715 35.077 86.1715 38.7589C86.1715 42.4109 89.0978 45.1075 92.6969 45.1075C96.2941 45.1075 99.2223 42.4109 99.2223 38.7589C99.2223 35.077 96.2941 32.4084 92.6969 32.4084ZM92.6969 42.6069C90.7244 42.6069 89.0233 41.0188 89.0233 38.7589C89.0233 36.4691 90.7244 34.909 92.6969 34.909C94.6675 34.909 96.3629 36.4691 96.3629 38.7589C96.3629 41.0188 94.6675 42.6069 92.6969 42.6069ZM75.7546 34.3548V37.0532H82.3545C82.1615 38.5611 81.6454 39.6696 80.8541 40.4421C79.8908 41.3752 78.3903 42.4109 75.7546 42.4109C71.6929 42.4109 68.5124 39.2105 68.5124 35.2449C68.5124 31.2794 71.6929 28.0789 75.7546 28.0789C77.9507 28.0789 79.5486 28.9168 80.7279 30.0029L82.6756 28.1013C81.0261 26.5636 78.8319 25.3823 75.7546 25.3823C70.1848 25.3823 65.5039 29.807 65.5039 35.2449C65.5039 40.6829 70.1848 45.1075 75.7546 45.1075C78.765 45.1075 81.0261 44.1446 82.8037 42.3381C84.6252 40.5597 85.1929 38.0591 85.1929 36.0399C85.1929 35.4129 85.1394 34.8362 85.0438 34.3548H75.7546ZM145.034 36.4467C144.497 35.0266 142.84 32.4084 139.464 32.4084C136.119 32.4084 133.335 34.9818 133.335 38.7589C133.335 42.3158 136.091 45.1075 139.785 45.1075C142.773 45.1075 144.497 43.3291 145.206 42.2934L142.989 40.8508C142.249 41.9071 141.242 42.6069 139.785 42.6069C138.338 42.6069 137.301 41.9593 136.635 40.6829L145.334 37.1689L145.034 36.4467V36.4467ZM136.165 38.5611C136.091 36.1127 138.113 34.8586 139.562 34.8586C140.697 34.8586 141.66 35.4129 141.982 36.206L136.165 38.5611V38.5611ZM129.095 44.7212H131.954V26.0597H129.095V44.7212ZM124.412 33.8229H124.317C123.674 33.0802 122.449 32.4084 120.897 32.4084C117.64 32.4084 114.662 35.2001 114.662 38.7794C114.662 42.3381 117.64 45.1075 120.897 45.1075C122.449 45.1075 123.674 44.4301 124.317 43.665H124.412V44.5757C124.412 47.0035 123.084 48.308 120.941 48.308C119.194 48.308 118.11 47.0763 117.663 46.0406L115.177 47.0539C115.893 48.7372 117.791 50.8086 120.941 50.8086C124.294 50.8086 127.123 48.8827 127.123 44.1968V32.7947H124.412V33.8229V33.8229ZM121.142 42.6069C119.171 42.6069 117.522 40.9964 117.522 38.7794C117.522 36.5419 119.171 34.909 121.142 34.909C123.084 34.909 124.615 36.5419 124.615 38.7794C124.615 40.9964 123.084 42.6069 121.142 42.6069V42.6069ZM158.421 26.0597H151.582V44.7212H154.434V37.6504H158.421C161.588 37.6504 164.694 35.4129 164.694 31.8541C164.694 28.2972 161.581 26.0597 158.421 26.0597V26.0597ZM158.496 35.0546H154.434V28.6556H158.496C160.625 28.6556 161.841 30.3817 161.841 31.8541C161.841 33.2985 160.625 35.0546 158.496 35.0546ZM176.124 32.3729C174.064 32.3729 171.921 33.2612 171.04 35.23L173.571 36.2657C174.115 35.23 175.117 34.8941 176.176 34.8941C177.655 34.8941 179.156 35.7618 179.179 37.294V37.4899C178.663 37.1988 177.558 36.7677 176.199 36.7677C173.473 36.7677 170.696 38.2326 170.696 40.9665C170.696 43.4672 172.928 45.0777 175.438 45.0777C177.357 45.0777 178.416 44.2323 179.081 43.2488H179.179V44.6914H181.933V37.5328C181.933 34.2241 179.402 32.3729 176.124 32.3729ZM175.78 42.5994C174.847 42.5994 173.548 42.1478 173.548 41.0188C173.548 39.5744 175.169 39.0201 176.572 39.0201C177.827 39.0201 178.416 39.2907 179.179 39.6472C178.955 41.3752 177.432 42.5994 175.78 42.5994V42.5994ZM191.968 32.7816L188.69 40.8714H188.592L185.203 32.7816H182.128L187.22 44.0867L184.314 50.3775H187.294L195.14 32.7816H191.968V32.7816ZM166.262 44.7212H169.121V26.0597H166.262V44.7212Z" fill="white"/>
<path d="M18.7091 11.1884C18.2599 11.6475 18 12.3622 18 13.2878V46.3037C18 47.2293 18.2599 47.9441 18.7091 48.4031L18.82 48.5039L37.7693 30.0104V29.5737L18.82 11.0802L18.7091 11.1884Z" fill="url(#paint0_linear_740_33154)"/>
<path d="M44.0751 36.1777L37.7656 30.0101V29.5734L44.0827 23.4058L44.2241 23.4861L51.7052 27.642C53.8402 28.8214 53.8402 30.7622 51.7052 31.949L44.2241 36.0975L44.0751 36.1777V36.1777Z" fill="url(#paint1_linear_740_33154)"/>
<path d="M44.2296 36.0981L37.7711 29.7923L18.7109 48.4034C19.4201 49.1312 20.5764 49.2189 21.8915 48.4911L44.2296 36.0981" fill="url(#paint2_linear_740_33154)"/>
<path d="M44.2296 23.4863L21.8915 11.0932C20.5764 10.3729 19.4201 10.4606 18.7109 11.1884L37.7711 29.792L44.2296 23.4863Z" fill="url(#paint3_linear_740_33154)"/>
</g>
<defs>
<linearGradient id="paint0_linear_740_33154" x1="36.0868" y1="46.6475" x2="11.0392" y2="20.993" gradientUnits="userSpaceOnUse">
<stop stop-color="#00A0FF"/>
<stop offset="0.0066" stop-color="#00A1FF"/>
<stop offset="0.2601" stop-color="#00BEFF"/>
<stop offset="0.5122" stop-color="#00D2FF"/>
<stop offset="0.7604" stop-color="#00DFFF"/>
<stop offset="1" stop-color="#00E3FF"/>
</linearGradient>
<linearGradient id="paint1_linear_740_33154" x1="54.4854" y1="29.7897" x2="17.486" y2="29.7897" gradientUnits="userSpaceOnUse">
<stop stop-color="#FFE000"/>
<stop offset="0.4087" stop-color="#FFBD00"/>
<stop offset="0.7754" stop-color="#FFA500"/>
<stop offset="1" stop-color="#FF9C00"/>
</linearGradient>
<linearGradient id="paint2_linear_740_33154" x1="40.7177" y1="26.3644" x2="6.7511" y2="-8.42517" gradientUnits="userSpaceOnUse">
<stop stop-color="#FF3A44"/>
<stop offset="1" stop-color="#C31162"/>
</linearGradient>
<linearGradient id="paint3_linear_740_33154" x1="13.9131" y1="59.3873" x2="29.0807" y2="43.8523" gradientUnits="userSpaceOnUse">
<stop stop-color="#32A071"/>
<stop offset="0.0685" stop-color="#2DA771"/>
<stop offset="0.4762" stop-color="#15CF74"/>
<stop offset="0.8009" stop-color="#06E775"/>
<stop offset="1" stop-color="#00F076"/>
</linearGradient>
<clipPath id="clip0_740_33154">
<rect width="212" height="58.9288" fill="white" transform="translate(0.75 0.839844)"/>
</clipPath>
</defs>
</svg>
